<?xml version="1.0" encoding="UTF-8"?>
<svg xmlns="http://www.w3.org/2000/svg" xmlns:xlink="http://www.w3.org/1999/xlink" width="39px" height="39px" viewBox="0 0 39 39" version="1.1">
<g id="surface1">
<path style=" stroke:none;fill-rule:nonzero;fill:rgb(0%,0%,0%);fill-opacity:1;" d="M 17.914062 2.132812 C 17.671875 2.621094 17.367188 2.925781 17.0625 2.742188 C 16.820312 2.621094 16.269531 3.167969 15.84375 4.023438 C 15.171875 5.179688 15.171875 5.667969 15.722656 6.214844 C 16.757812 7.25 16.636719 8.53125 15.539062 8.53125 C 15.050781 8.53125 14.625 8.835938 14.625 9.203125 C 14.625 9.566406 14.199219 9.75 13.710938 9.507812 C 13.164062 9.324219 12.796875 9.507812 12.796875 10.054688 C 12.796875 10.542969 12.554688 10.96875 12.25 10.96875 C 11.394531 10.96875 12.1875 6.582031 13.164062 5.421875 C 14.078125 4.386719 14.320312 1.828125 13.527344 1.828125 C 12.554688 1.828125 9.75 5.300781 9.75 6.519531 C 9.75 7.191406 9.566406 8.59375 9.382812 9.628906 C 9.019531 11.394531 8.835938 11.515625 5.851562 11.699219 L 2.742188 11.882812 L 2.558594 21.816406 C 2.4375 29.859375 2.253906 31.808594 1.523438 32.054688 C 1.035156 32.296875 0.609375 33.210938 0.609375 34.1875 C 0.609375 36.683594 2.558594 37.78125 7.007812 37.71875 L 10.664062 37.597656 L 6.765625 37.171875 C 2.863281 36.746094 1.21875 35.710938 1.21875 33.699219 C 1.21875 32.480469 14.992188 32.539062 15.476562 33.820312 C 15.722656 34.492188 16.757812 34.734375 19.5 34.734375 C 22.242188 34.734375 23.277344 34.492188 23.523438 33.820312 C 23.828125 33.089844 25.226562 32.90625 30.835938 32.90625 C 38.207031 32.90625 38.757812 33.148438 36.929688 35.710938 C 36.136719 36.746094 35.039062 36.867188 24.253906 37.234375 L 12.492188 37.539062 L 24.070312 37.660156 C 33.757812 37.78125 35.890625 37.597656 37.050781 36.804688 C 38.574219 35.710938 38.878906 32.601562 37.476562 32.054688 C 36.746094 31.808594 36.5625 29.859375 36.441406 21.816406 L 36.257812 11.882812 L 32.84375 11.699219 C 29.554688 11.515625 29.371094 11.457031 29.007812 9.628906 C 28.824219 8.59375 28.640625 7.191406 28.640625 6.519531 C 28.640625 5.300781 25.835938 1.828125 24.863281 1.828125 C 24.007812 1.828125 24.3125 4.691406 25.226562 5.421875 C 26.140625 6.214844 26.875 10.96875 26.082031 10.96875 C 25.777344 10.96875 25.59375 10.601562 25.59375 10.117188 C 25.59375 9.566406 25.167969 9.382812 24.375 9.566406 C 23.523438 9.8125 23.15625 9.628906 23.277344 9.078125 C 23.398438 8.59375 23.09375 8.289062 22.730469 8.410156 C 21.632812 8.59375 21.753906 5.972656 22.851562 4.507812 C 24.558594 2.195312 24.007812 1.21875 21.023438 1.21875 C 19.132812 1.21875 18.160156 1.523438 17.914062 2.132812 Z M 21.265625 4.328125 C 19.683594 5.546875 17.367188 5.851562 16.757812 4.875 C 16.574219 4.507812 17 4.265625 17.792969 4.265625 C 18.648438 4.265625 19.804688 3.898438 20.414062 3.414062 C 22.179688 2.132812 22.972656 3.046875 21.265625 4.328125 Z M 12.308594 5.058594 C 10.421875 7.070312 10.359375 12.1875 12.1875 12.1875 C 12.859375 12.1875 13.40625 12.429688 13.40625 12.796875 C 13.40625 13.101562 12.554688 13.40625 11.515625 13.40625 C 9.6875 13.40625 9.628906 13.285156 9.992188 11.515625 C 10.175781 10.480469 10.359375 8.835938 10.359375 7.921875 C 10.359375 6.277344 12.613281 2.679688 13.285156 3.351562 C 13.46875 3.535156 13.039062 4.265625 12.308594 5.058594 Z M 27.421875 5.667969 C 27.421875 6.03125 26.875 5.789062 26.203125 5.179688 C 25.53125 4.570312 24.984375 3.777344 24.984375 3.472656 C 24.984375 3.109375 25.53125 3.351562 26.203125 3.960938 C 26.875 4.570312 27.421875 5.363281 27.421875 5.667969 Z M 21.328125 7.128906 C 21.328125 7.679688 21.144531 7.921875 20.902344 7.738281 C 20.71875 7.496094 20.171875 7.617188 19.742188 7.984375 C 19.257812 8.410156 18.890625 8.410156 18.585938 7.921875 C 18.402344 7.554688 17.914062 7.433594 17.609375 7.617188 C 17.304688 7.859375 17.0625 7.738281 17.0625 7.375 C 17.0625 7.070312 17.792969 6.640625 18.769531 6.519531 C 19.683594 6.398438 20.597656 6.214844 20.902344 6.15625 C 21.144531 6.15625 21.328125 6.519531 21.328125 7.128906 Z M 28.214844 10.175781 L 28.578125 13.40625 L 26.8125 13.40625 C 25.777344 13.40625 24.984375 13.101562 24.984375 12.796875 C 24.984375 12.429688 25.53125 12.1875 26.203125 12.1875 C 27.238281 12.1875 27.421875 11.761719 27.421875 9.324219 C 27.421875 5.726562 27.789062 6.09375 28.214844 10.175781 Z M 20.476562 13.527344 C 20.046875 16.148438 19.742188 16.878906 19.257812 16.390625 C 18.707031 15.90625 19.683594 10.96875 20.292969 10.96875 C 20.65625 10.96875 20.71875 11.945312 20.476562 13.527344 Z M 15.84375 12.1875 C 15.84375 12.492188 15.601562 12.796875 15.234375 12.796875 C 14.929688 12.796875 14.625 12.492188 14.625 12.1875 C 14.625 11.820312 14.929688 11.578125 15.234375 11.578125 C 15.601562 11.578125 15.84375 11.820312 15.84375 12.1875 Z M 23.398438 12.917969 C 22.914062 14.5625 22.667969 14.929688 22.242188 14.5625 C 21.816406 14.078125 22.667969 11.578125 23.277344 11.578125 C 23.582031 11.578125 23.644531 12.1875 23.398438 12.917969 Z M 8.53125 12.796875 C 8.53125 13.101562 7.554688 13.40625 6.398438 13.40625 L 4.265625 13.40625 L 4.265625 30.46875 L 34.734375 30.46875 L 34.734375 26.8125 C 34.734375 24.800781 34.492188 23.15625 34.125 23.15625 C 33.820312 23.15625 33.515625 24.679688 33.515625 26.507812 L 33.515625 29.859375 L 28.335938 29.859375 C 25.410156 29.859375 23.15625 29.617188 23.15625 29.25 C 23.15625 28.945312 23.582031 28.824219 24.132812 29.066406 C 25.351562 29.492188 26.386719 28.03125 25.53125 27.054688 C 25.167969 26.570312 25.289062 26.203125 25.960938 25.960938 C 26.570312 25.714844 27.238281 25.960938 27.726562 26.570312 C 28.152344 27.179688 28.882812 27.484375 29.492188 27.238281 C 30.710938 26.75 30.773438 25.65625 29.554688 25.226562 C 29.066406 24.984375 28.640625 24.253906 28.640625 23.460938 C 28.640625 22.609375 27.542969 21.085938 25.714844 19.316406 C 21.570312 15.539062 22.179688 14.625 28.640625 14.625 L 33.515625 14.625 L 33.515625 17.671875 C 33.515625 19.316406 33.820312 20.71875 34.125 20.71875 C 34.492188 20.71875 34.734375 19.074219 34.734375 17.0625 L 34.734375 13.40625 L 32.296875 13.40625 C 30.957031 13.40625 29.859375 13.101562 29.859375 12.734375 C 29.859375 12.371094 31.015625 12.1875 32.785156 12.308594 L 35.648438 12.492188 L 35.832031 22.058594 L 36.015625 31.6875 L 3.046875 31.6875 L 3.046875 22.363281 C 3.046875 17.183594 3.230469 12.796875 3.472656 12.613281 C 4.082031 11.945312 8.53125 12.125 8.53125 12.796875 Z M 16.453125 14.382812 C 16.453125 14.867188 16.210938 15.113281 15.84375 14.929688 C 15.539062 14.746094 15.234375 14.320312 15.234375 13.953125 C 15.234375 13.648438 15.539062 13.40625 15.84375 13.40625 C 16.210938 13.40625 16.453125 13.832031 16.453125 14.382812 Z M 14.929688 15.601562 C 15.539062 16.453125 15.171875 17.0625 12.675781 19.378906 C 10.847656 21.085938 9.75 22.609375 9.75 23.460938 C 9.75 24.253906 9.324219 24.984375 8.835938 25.226562 C 7.617188 25.65625 7.679688 26.75 8.898438 27.238281 C 9.507812 27.484375 10.238281 27.179688 10.664062 26.570312 C 11.152344 25.960938 11.820312 25.714844 12.429688 25.960938 C 13.222656 26.265625 13.285156 26.570312 12.734375 27.179688 C 12.371094 27.605469 12.25 28.273438 12.492188 28.640625 C 13.039062 29.492188 14.441406 29.433594 14.808594 28.457031 C 14.992188 28.03125 15.171875 28.152344 15.171875 28.761719 C 15.234375 29.738281 14.625 29.859375 10.359375 29.859375 L 5.484375 29.859375 L 5.484375 14.625 L 9.8125 14.625 C 13.164062 14.625 14.382812 14.867188 14.929688 15.601562 Z M 24.921875 20.109375 L 27.664062 22.484375 L 25.835938 23.21875 C 23.523438 24.132812 14.808594 24.132812 12.492188 23.21875 L 10.664062 22.484375 L 13.40625 20.109375 C 15.78125 17.976562 16.515625 17.734375 19.195312 17.734375 C 21.875 17.734375 22.609375 18.039062 24.921875 20.109375 Z M 14.625 24.984375 C 15.417969 25.53125 15.417969 25.59375 14.625 25.59375 C 14.136719 25.59375 13.285156 25.289062 12.796875 24.984375 C 12.003906 24.4375 12.003906 24.375 12.796875 24.375 C 13.285156 24.375 14.136719 24.679688 14.625 24.984375 Z M 25.59375 24.984375 C 25.105469 25.289062 24.253906 25.59375 23.765625 25.59375 C 22.972656 25.59375 22.972656 25.53125 23.765625 24.984375 C 24.253906 24.679688 25.105469 24.375 25.59375 24.375 C 26.386719 24.375 26.386719 24.4375 25.59375 24.984375 Z M 22.304688 25.65625 C 22.484375 25.960938 21.144531 26.203125 19.195312 26.203125 C 17.246094 26.203125 15.90625 25.960938 16.085938 25.65625 C 16.332031 25.351562 17.671875 25.105469 19.195312 25.105469 C 20.71875 25.105469 22.058594 25.351562 22.304688 25.65625 Z M 18.34375 27.421875 C 18.648438 27.421875 18.890625 27.96875 18.890625 28.640625 C 18.890625 29.433594 18.464844 29.859375 17.671875 29.859375 C 17 29.859375 16.453125 29.617188 16.453125 29.3125 C 16.453125 29.007812 16.269531 28.273438 16.027344 27.664062 C 15.722656 26.8125 15.84375 26.691406 16.695312 26.996094 C 17.304688 27.238281 18.039062 27.421875 18.34375 27.421875 Z M 22.425781 28.152344 C 22.179688 30.042969 19.5 30.53125 19.5 28.703125 C 19.5 27.664062 20.230469 27.179688 22.121094 26.875 C 22.425781 26.875 22.546875 27.421875 22.425781 28.152344 Z M 22.546875 33.515625 C 22.546875 33.820312 21.207031 34.125 19.5 34.125 C 17.855469 34.125 16.453125 33.820312 16.453125 33.515625 C 16.453125 33.148438 17.855469 32.90625 19.5 32.90625 C 21.207031 32.90625 22.546875 33.148438 22.546875 33.515625 Z M 22.546875 33.515625 "/>
<path style=" stroke:none;fill-rule:nonzero;fill:rgb(0%,0%,0%);fill-opacity:1;" d="M 5.726562 6.582031 C 5.179688 7.433594 5.242188 7.921875 5.851562 8.835938 C 6.703125 9.933594 6.703125 9.933594 7.554688 8.835938 C 8.164062 7.921875 8.226562 7.433594 7.679688 6.582031 C 7.3125 5.972656 6.886719 5.484375 6.703125 5.484375 C 6.519531 5.484375 6.09375 5.972656 5.726562 6.582031 Z M 5.726562 6.582031 "/>
<path style=" stroke:none;fill-rule:nonzero;fill:rgb(0%,0%,0%);fill-opacity:1;" d="M 31.320312 6.582031 C 30.773438 7.433594 30.835938 7.921875 31.445312 8.835938 C 32.296875 9.933594 32.296875 9.933594 33.148438 8.835938 C 33.757812 7.921875 33.820312 7.433594 33.273438 6.582031 C 32.90625 5.972656 32.480469 5.484375 32.296875 5.484375 C 32.113281 5.484375 31.6875 5.972656 31.320312 6.582031 Z M 31.320312 6.582031 "/>
</g>
</svg>
